<svg id="svg" version="1.1" xmlns="http://www.w3.org/2000/svg" xmlns:xlink="http://www.w3.org/1999/xlink" width="400" height="400" viewBox="0, 0, 400,400"><g id="svgg"><path id="path0" d="M0.000 200.000 L 0.000 400.000 200.000 400.000 L 400.000 400.000 400.000 200.000 L 400.000 0.000 200.000 0.000 L 0.000 0.000 0.000 200.000 M212.109 59.937 C 230.673 61.566,246.059 65.944,262.305 74.219 C 270.569 78.429,274.495 80.763,276.428 82.615 C 277.349 83.498,278.710 84.509,279.452 84.863 C 281.395 85.789,289.377 91.920,294.012 96.045 L 297.986 99.581 301.239 96.807 C 309.718 89.576,315.169 82.673,318.948 74.380 C 320.518 70.936,320.856 70.844,322.036 73.535 C 324.688 79.587,325.937 87.924,325.670 97.806 C 325.452 105.916,324.597 110.323,322.427 114.519 C 321.551 116.212,321.920 116.664,324.436 116.978 L 326.669 117.257 326.447 120.250 C 326.260 122.782,325.662 125.600,324.391 129.951 C 324.182 130.666,324.319 130.820,325.255 130.927 C 326.587 131.080,328.046 133.810,331.294 142.222 C 334.048 149.355,334.087 149.873,332.044 152.089 L 330.419 153.852 331.323 154.334 C 333.188 155.327,334.073 157.445,336.339 166.345 C 349.046 216.231,329.773 275.050,290.625 305.860 C 289.229 306.959,287.295 308.512,286.328 309.311 C 272.104 321.063,249.197 331.502,228.320 335.744 C 217.361 337.972,196.880 339.032,187.500 337.858 C 166.864 335.274,158.501 333.062,142.578 325.971 C 98.373 306.285,69.464 268.030,61.700 218.945 C 57.991 195.498,63.299 154.408,70.054 154.272 C 71.093 154.251,71.163 154.196,70.496 153.926 C 69.041 153.336,66.797 150.482,66.797 149.222 C 66.797 146.419,73.344 131.207,74.868 130.469 C 75.940 129.949,76.035 129.772,75.705 128.906 C 75.319 127.892,74.064 121.972,73.702 119.458 C 73.441 117.643,73.886 117.256,76.890 116.685 L 79.212 116.244 78.081 114.239 C 73.147 105.497,73.520 82.716,78.762 72.559 C 79.615 70.906,79.873 71.159,82.257 75.987 C 86.095 83.762,92.299 91.264,100.108 97.575 L 102.755 99.714 105.186 97.409 C 110.877 92.014,118.077 86.386,120.907 85.120 C 121.771 84.733,122.857 83.905,123.319 83.280 C 124.385 81.839,131.347 77.632,138.672 74.004 C 161.697 62.599,187.067 57.739,212.109 59.937 M174.708 163.086 C 174.712 163.945,174.792 164.251,174.886 163.765 C 174.979 163.279,174.976 162.576,174.878 162.202 C 174.780 161.829,174.704 162.227,174.708 163.086 M108.398 169.141 C 109.238 170.000,110.012 170.703,110.119 170.703 C 110.227 170.703,109.628 170.000,108.789 169.141 C 107.950 168.281,107.175 167.578,107.068 167.578 C 106.961 167.578,107.559 168.281,108.398 169.141 M293.652 172.932 C 294.136 173.025,294.927 173.025,295.410 172.932 C 295.894 172.839,295.498 172.763,294.531 172.763 C 293.564 172.763,293.169 172.839,293.652 172.932 M109.675 173.330 C 110.377 173.417,111.432 173.415,112.019 173.326 C 112.606 173.237,112.031 173.166,110.742 173.168 C 109.453 173.170,108.973 173.243,109.675 173.330 M287.994 173.327 C 288.587 173.417,289.466 173.415,289.947 173.322 C 290.427 173.229,289.941 173.156,288.867 173.159 C 287.793 173.162,287.400 173.237,287.994 173.327 M181.046 182.209 C 180.688 183.817,180.465 185.340,180.549 185.593 C 180.634 185.847,180.926 184.845,181.198 183.368 C 181.470 181.890,181.865 180.473,182.076 180.219 C 182.326 179.919,182.326 179.675,182.078 179.521 C 181.861 179.387,181.417 180.542,181.046 182.209 M273.633 196.875 L 269.727 197.114 273.438 197.184 C 275.479 197.222,277.412 197.083,277.734 196.875 C 278.057 196.667,278.145 196.528,277.930 196.566 C 277.715 196.604,275.781 196.743,273.633 196.875 M104.009 198.327 C 104.603 198.417,105.482 198.415,105.962 198.322 C 106.443 198.229,105.957 198.156,104.883 198.159 C 103.809 198.162,103.416 198.237,104.009 198.327 M166.504 203.795 C 167.095 203.885,168.062 203.885,168.652 203.795 C 169.243 203.706,168.760 203.633,167.578 203.633 C 166.396 203.633,165.913 203.706,166.504 203.795 M103.809 209.260 C 104.292 209.353,105.083 209.353,105.566 209.260 C 106.050 209.167,105.654 209.091,104.688 209.091 C 103.721 209.091,103.325 209.167,103.809 209.260 M110.858 209.275 C 112.641 209.348,115.454 209.347,117.108 209.274 C 118.763 209.201,117.305 209.142,113.867 209.142 C 110.430 209.143,109.076 209.203,110.858 209.275 M292.285 209.274 C 293.735 209.349,296.108 209.349,297.559 209.274 C 299.009 209.199,297.822 209.137,294.922 209.137 C 292.021 209.137,290.835 209.199,292.285 209.274 " stroke="none" fill="#186a95" fill-rule="evenodd"></path><path id="path1" d="M187.305 60.169 C 169.288 62.165,155.223 66.200,139.648 73.840 C 127.606 79.747,122.342 83.316,122.221 85.658 C 121.884 92.140,125.596 93.002,133.398 88.253 C 155.574 74.757,186.395 67.528,211.280 69.985 C 232.538 72.084,250.281 77.971,268.164 88.860 C 273.243 91.953,275.002 92.154,277.038 89.876 C 281.032 85.406,274.137 79.319,256.055 71.354 C 235.275 62.201,208.408 57.830,187.305 60.169 M197.931 83.827 C 195.256 85.277,195.492 89.917,198.314 91.361 C 199.865 92.154,202.137 91.897,203.228 90.806 C 206.786 87.248,202.364 81.423,197.931 83.827 M179.453 87.656 C 176.015 91.094,179.561 96.754,184.000 94.915 C 186.945 93.696,187.186 88.637,184.379 86.979 C 182.583 85.917,180.970 86.139,179.453 87.656 M216.527 86.722 C 214.551 87.518,213.542 90.830,214.633 92.939 C 215.880 95.350,219.600 95.954,221.396 94.037 C 224.855 90.345,221.192 84.843,216.527 86.722 M81.652 92.126 C 81.627 103.398,84.540 111.192,91.105 117.426 C 95.096 121.214,100.411 124.305,120.990 134.803 L 132.019 140.430 132.025 148.078 L 132.031 155.727 133.691 156.909 C 138.355 160.229,163.479 172.656,165.527 172.656 C 166.078 172.656,167.164 167.409,166.650 167.229 C 166.408 167.144,159.927 163.916,152.246 160.054 L 138.281 153.033 138.281 144.499 C 138.281 136.046,138.273 135.961,137.402 135.505 C 134.303 133.882,119.299 124.232,111.133 118.609 C 97.487 109.213,88.644 100.131,83.314 90.039 L 81.663 86.914 81.652 92.126 M317.625 88.583 C 312.097 101.686,294.411 117.188,266.602 133.305 L 262.305 135.796 262.109 144.363 L 261.914 152.930 254.297 156.715 C 250.107 158.797,242.957 162.121,238.408 164.101 L 230.136 167.702 231.045 170.205 C 231.544 171.582,232.034 172.789,232.132 172.887 C 232.946 173.701,264.286 159.064,268.046 156.115 C 268.088 156.082,268.220 152.461,268.339 148.068 L 268.555 140.081 282.617 133.021 C 309.698 119.425,314.514 115.419,317.387 104.102 C 318.889 98.185,319.089 85.112,317.625 88.583 M162.266 94.688 C 159.439 97.514,161.082 101.953,164.956 101.953 C 167.090 101.953,168.574 100.897,169.096 99.006 C 170.317 94.581,165.450 91.503,162.266 94.688 M233.329 93.976 C 229.316 95.999,230.832 101.953,235.360 101.953 C 237.770 101.953,239.073 100.762,239.350 98.303 C 239.766 94.606,236.597 92.329,233.329 93.976 M141.518 100.019 C 135.405 102.440,133.423 110.837,137.814 115.708 C 144.156 122.744,155.078 118.437,155.078 108.901 C 155.078 102.228,147.865 97.504,141.518 100.019 M251.953 99.796 C 243.151 102.646,243.116 115.550,251.903 118.544 C 257.753 120.537,263.509 117.248,264.879 111.129 C 266.530 103.749,259.306 97.415,251.953 99.796 M124.023 103.014 C 118.639 104.316,120.791 112.703,126.253 111.704 C 131.295 110.782,130.148 101.976,125.090 102.780 C 124.933 102.805,124.453 102.910,124.023 103.014 M272.399 103.700 C 268.791 106.228,270.628 111.719,275.083 111.719 C 278.628 111.719,280.433 108.408,278.707 105.070 C 277.697 103.117,274.288 102.377,272.399 103.700 M147.055 105.683 C 150.829 107.474,149.396 113.281,145.181 113.281 C 140.903 113.281,139.544 107.669,143.360 105.762 C 145.035 104.925,145.440 104.916,147.055 105.683 M258.047 106.406 C 260.426 108.786,259.550 112.374,256.375 113.251 C 252.564 114.303,249.583 109.938,252.007 106.856 C 253.724 104.674,256.135 104.494,258.047 106.406 M179.124 107.916 C 180.366 111.985,182.700 114.127,186.881 115.034 L 188.020 115.282 186.744 116.057 C 181.491 119.252,171.819 121.920,165.332 121.964 C 161.469 121.990,161.461 122.004,164.551 123.447 C 172.784 127.294,181.864 126.250,196.622 119.759 C 198.812 118.795,198.301 119.733,195.477 121.859 C 174.467 137.682,174.276 152.431,194.637 186.671 C 203.560 201.676,207.922 211.011,212.868 225.689 C 217.484 239.387,218.520 241.012,229.102 251.161 C 231.465 253.428,234.788 256.467,236.485 257.915 L 239.572 260.547 257.970 260.545 C 279.456 260.544,276.229 261.320,284.118 254.256 C 290.615 248.439,289.704 248.800,292.027 251.123 C 299.039 258.135,311.108 252.973,311.096 242.969 C 311.083 233.055,299.590 228.147,291.997 234.814 C 290.647 235.999,288.281 240.203,288.281 241.416 C 288.281 242.043,275.556 253.742,274.950 253.672 C 274.762 253.650,267.076 253.606,257.868 253.574 L 241.127 253.516 233.322 245.801 C 223.477 236.069,222.223 233.907,217.966 219.328 C 213.129 202.757,210.011 196.268,198.830 179.492 C 186.727 161.333,183.382 151.715,185.866 142.215 C 186.638 139.267,187.500 138.594,187.500 140.940 C 187.500 145.139,189.871 153.394,192.471 158.245 C 193.847 160.813,194.806 161.834,206.002 172.656 C 215.311 181.654,222.020 193.847,222.319 202.313 C 222.411 204.898,222.806 204.460,224.010 200.436 C 228.355 185.918,225.749 173.696,215.586 160.938 C 204.869 147.482,204.795 139.533,215.339 134.448 C 226.964 128.841,240.644 130.753,238.891 137.739 C 238.502 139.290,239.561 138.331,240.592 136.199 C 243.655 129.865,240.488 123.379,232.753 120.143 C 230.569 119.229,229.958 118.753,228.921 117.152 C 224.296 110.015,215.632 107.741,198.598 109.196 C 188.711 110.041,184.048 109.736,180.766 108.034 L 178.857 107.043 179.124 107.916 M217.374 117.218 C 219.696 117.684,221.990 118.974,223.749 120.805 L 225.037 122.146 222.968 123.016 C 217.234 125.428,213.290 124.169,211.313 119.298 C 210.106 116.326,211.146 115.969,217.374 117.218 M83.203 125.115 C 83.203 125.186,83.704 126.727,84.317 128.540 C 87.669 138.455,93.057 143.909,102.386 146.829 C 103.759 147.259,107.739 148.507,111.230 149.603 L 117.578 151.596 117.591 155.388 L 117.604 159.180 120.801 161.523 C 122.560 162.813,125.762 165.280,127.917 167.006 C 130.073 168.733,133.330 171.342,135.156 172.804 C 136.982 174.266,138.965 175.874,139.562 176.377 C 140.243 176.952,143.365 178.123,147.960 179.527 C 151.982 180.756,157.471 182.438,160.156 183.264 C 162.842 184.090,165.215 184.766,165.430 184.766 C 165.666 184.767,165.771 183.642,165.695 181.919 L 165.569 179.070 163.546 178.357 C 158.271 176.498,142.854 170.463,140.317 169.265 C 137.525 167.945,133.961 165.408,127.249 159.961 L 123.880 157.227 123.848 152.930 C 123.831 150.566,123.721 148.275,123.604 147.837 C 123.446 147.250,119.942 145.321,110.230 140.476 C 94.932 132.844,89.805 130.015,85.975 127.098 C 84.451 125.936,83.203 125.044,83.203 125.115 M315.430 126.438 C 312.275 129.069,307.117 131.962,292.773 139.144 C 284.180 143.446,277.078 147.031,276.992 147.110 C 276.906 147.189,276.789 149.398,276.733 152.020 L 276.631 156.787 272.788 159.884 C 261.120 169.286,262.493 168.600,236.387 178.061 L 233.517 179.102 233.752 181.805 C 233.882 183.292,234.059 184.580,234.147 184.668 C 234.234 184.755,237.441 183.857,241.274 182.671 C 245.106 181.486,250.652 179.801,253.597 178.927 C 259.664 177.127,258.471 177.900,274.129 165.625 L 282.350 159.180 282.484 155.291 L 282.617 151.402 287.305 150.105 C 307.099 144.627,312.375 140.675,316.024 128.593 C 317.027 125.270,316.990 125.136,315.430 126.438 M148.798 146.454 C 146.657 148.596,147.414 152.207,150.198 153.126 C 154.511 154.549,157.361 149.861,154.141 146.641 C 152.370 144.870,150.449 144.803,148.798 146.454 M247.266 145.570 C 244.164 146.799,243.690 151.485,246.520 152.948 C 249.726 154.606,253.225 152.153,252.578 148.702 C 252.153 146.435,249.311 144.760,247.266 145.570 M83.780 154.544 C 92.238 169.224,95.301 172.266,101.626 172.266 L 102.844 172.266 101.110 170.739 C 99.475 169.300,96.057 163.188,96.589 162.656 C 96.698 162.547,98.210 162.747,99.950 163.099 C 104.146 163.949,104.130 163.975,101.685 160.156 C 100.516 158.330,99.439 156.635,99.291 156.389 C 99.008 155.918,88.388 153.370,84.800 152.913 L 82.685 152.644 83.780 154.544 M309.961 153.930 C 306.953 154.560,303.571 155.264,302.446 155.495 C 300.449 155.903,300.364 155.977,298.960 158.523 C 298.169 159.958,297.181 161.626,296.765 162.230 C 296.349 162.833,296.104 163.422,296.222 163.539 C 296.428 163.746,302.119 162.712,303.326 162.249 C 304.665 161.735,301.300 168.184,298.941 170.653 L 297.296 172.374 299.722 172.130 C 305.270 171.573,308.188 169.091,312.891 160.927 C 314.287 158.502,315.928 155.667,316.536 154.626 L 317.643 152.734 316.536 152.759 C 315.928 152.772,312.969 153.299,309.961 153.930 M68.468 155.242 C 63.022 159.825,58.872 195.651,61.452 215.820 C 71.311 292.898,140.338 346.582,217.578 337.244 C 302.201 327.013,357.297 245.038,335.108 162.376 C 333.231 155.385,332.219 154.042,329.091 154.395 C 324.441 154.919,323.533 157.429,325.396 164.605 C 344.429 237.911,299.522 311.195,226.758 325.572 C 214.885 327.918,193.462 328.837,184.180 327.399 C 130.027 319.010,89.933 284.718,75.767 234.675 C 68.966 210.654,68.680 189.313,74.835 165.288 C 76.429 159.066,76.442 158.782,75.219 156.982 C 73.454 154.385,70.417 153.602,68.468 155.242 M107.031 158.509 C 107.031 159.844,112.585 166.156,116.972 169.808 C 118.917 171.426,121.027 173.202,121.661 173.754 C 122.517 174.498,124.028 175.031,127.515 175.820 L 132.216 176.884 130.849 175.649 C 125.358 170.690,114.599 161.851,112.695 160.735 C 110.701 159.566,107.031 158.124,107.031 158.509 M291.992 158.792 C 291.777 158.866,290.585 159.211,289.342 159.557 C 287.468 160.078,286.536 160.692,283.874 163.153 C 280.857 165.942,272.852 172.626,269.487 175.165 C 267.465 176.692,267.546 176.704,272.728 175.652 C 277.102 174.763,277.303 174.676,280.116 172.449 C 283.788 169.542,290.093 163.249,291.720 160.867 C 293.258 158.616,293.294 158.338,291.992 158.792 M174.612 175.605 C 174.620 188.720,181.760 205.142,196.131 225.104 C 197.399 226.866,197.474 228.842,197.033 248.864 L 196.761 261.204 189.494 267.856 C 185.497 271.515,179.063 277.375,175.195 280.880 C 171.328 284.384,166.959 288.376,165.485 289.752 L 162.806 292.253 161.774 291.267 C 155.435 285.209,145.089 290.031,145.130 299.023 C 145.185 311.265,163.110 312.740,165.170 300.672 C 165.461 298.967,166.448 297.970,182.053 283.615 C 184.727 281.155,189.023 277.185,191.602 274.791 C 194.180 272.397,197.911 268.960,199.894 267.153 L 203.498 263.867 203.507 253.223 C 203.516 242.032,203.644 241.316,205.118 244.238 C 209.229 252.394,212.165 255.989,226.047 269.875 L 238.303 282.134 250.034 281.957 L 261.765 281.780 262.586 282.980 C 269.036 292.405,282.750 289.172,282.885 278.196 C 283.029 266.363,267.253 262.747,262.209 273.457 C 261.337 275.308,260.808 275.391,249.819 275.391 L 241.545 275.391 234.347 268.437 C 217.058 251.736,214.866 248.876,206.445 232.031 C 201.893 222.924,200.478 220.488,193.739 210.156 C 186.914 199.691,184.065 194.888,181.967 190.313 C 181.110 188.443,179.964 185.947,179.419 184.766 C 178.875 183.584,178.191 182.090,177.900 181.445 C 177.608 180.801,176.903 178.604,176.331 176.563 C 174.941 171.595,174.609 171.410,174.612 175.605 M107.480 185.716 C 110.959 188.923,117.285 193.811,118.945 194.576 C 120.569 195.323,129.297 195.686,129.297 195.005 C 129.297 194.837,126.265 192.332,122.559 189.439 L 115.820 184.180 110.605 183.984 L 105.390 183.789 107.480 185.716 M124.609 184.729 C 125.361 185.378,128.723 187.938,132.080 190.416 L 138.183 194.922 141.455 194.923 C 146.939 194.924,156.444 195.724,164.825 196.888 C 167.881 197.313,167.645 197.638,166.823 194.141 L 166.134 191.211 157.579 189.582 C 143.843 186.967,129.680 184.456,127.148 184.187 C 125.859 184.050,124.453 183.850,124.023 183.742 C 123.469 183.604,123.640 183.891,124.609 184.729 M272.852 184.027 C 271.563 184.213,267.256 184.973,263.281 185.716 C 259.307 186.459,252.012 187.781,247.070 188.655 C 233.617 191.034,233.879 190.958,233.487 192.584 C 233.307 193.333,232.982 194.516,232.766 195.213 C 232.184 197.090,232.374 197.151,237.182 196.644 C 239.613 196.388,242.989 196.057,244.685 195.908 C 246.381 195.758,248.139 195.561,248.592 195.469 C 249.044 195.377,252.227 195.189,255.664 195.052 L 261.914 194.803 264.258 193.228 C 267.593 190.988,275.486 185.009,276.122 184.241 C 276.746 183.488,276.639 183.481,272.852 184.027 M82.244 185.059 C 89.540 196.368,92.089 198.052,101.878 198.031 C 108.789 198.016,109.117 197.982,108.008 197.394 C 106.085 196.374,100.908 192.048,98.898 189.780 L 97.991 188.757 100.637 188.970 L 103.284 189.182 100.398 186.583 L 97.513 183.984 89.532 183.984 L 81.551 183.984 82.244 185.059 M282.101 185.882 C 280.795 186.926,277.775 189.237,275.389 191.017 C 270.182 194.903,270.229 195.050,276.623 194.864 C 281.382 194.726,281.471 194.707,283.398 193.381 C 285.713 191.788,294.922 184.423,294.922 184.164 C 294.922 184.065,292.571 183.984,289.698 183.984 L 284.475 183.984 282.101 185.882 M299.231 186.668 L 296.313 189.335 299.230 188.840 C 300.834 188.567,302.197 188.395,302.260 188.458 C 302.530 188.728,294.160 195.900,292.387 196.917 L 290.430 198.040 297.880 198.043 L 305.330 198.047 307.529 196.856 C 310.410 195.296,315.489 189.433,317.919 184.863 L 318.387 183.984 310.268 183.992 L 302.148 184.000 299.231 186.668 M144.124 204.196 L 140.397 204.323 132.018 212.708 L 123.640 221.094 127.799 221.094 L 131.959 221.094 139.649 213.184 C 143.879 208.833,147.505 204.966,147.707 204.590 C 147.909 204.214,148.024 203.943,147.963 203.988 C 147.902 204.033,146.174 204.127,144.124 204.196 M147.861 215.616 L 136.156 227.326 129.718 227.432 L 123.280 227.539 126.737 230.957 L 130.194 234.375 133.991 234.375 L 137.787 234.375 149.946 222.168 L 162.105 209.961 167.957 209.766 L 173.810 209.570 171.838 206.738 L 169.867 203.906 164.716 203.906 L 159.565 203.906 147.861 215.616 M228.947 205.957 C 228.283 207.085,227.454 208.403,227.104 208.887 L 226.467 209.766 232.084 209.766 L 237.700 209.766 250.000 222.070 L 262.300 234.375 266.412 234.375 L 270.524 234.375 274.023 230.859 L 277.523 227.344 270.693 227.344 L 263.862 227.344 252.148 215.625 L 240.435 203.906 235.294 203.906 L 230.153 203.906 228.947 205.957 M122.656 206.836 L 120.140 209.375 110.168 209.384 L 100.195 209.392 104.688 213.791 C 107.158 216.210,109.997 218.849,110.996 219.656 L 112.813 221.124 116.465 221.011 L 120.117 220.898 117.285 218.149 C 113.713 214.680,113.628 214.844,118.987 214.844 L 123.521 214.844 126.924 211.230 C 128.795 209.243,130.994 206.870,131.810 205.957 L 133.294 204.297 129.233 204.297 L 125.173 204.297 122.656 206.836 M252.409 204.682 C 252.480 204.894,256.024 208.674,260.284 213.081 L 268.029 221.094 272.136 221.094 L 276.244 221.094 268.103 212.710 L 259.961 204.326 256.120 204.311 C 253.760 204.302,252.329 204.445,252.409 204.682 M267.266 204.729 C 267.346 204.966,269.600 207.339,272.276 210.002 L 277.141 214.844 281.344 214.844 C 286.315 214.844,286.328 214.872,282.813 217.996 C 279.336 221.085,279.339 221.094,283.926 221.094 L 287.773 221.094 293.898 215.332 L 300.022 209.570 290.130 209.466 L 280.238 209.362 277.728 206.830 L 275.218 204.297 271.170 204.297 C 268.388 204.297,267.167 204.432,267.266 204.729 M84.149 205.815 C 80.303 208.159,82.205 214.453,86.609 213.956 C 89.107 213.675,90.625 212.132,90.625 209.874 C 90.625 206.124,87.181 203.966,84.149 205.815 M312.891 205.417 C 309.337 206.315,308.174 210.205,310.703 212.734 C 314.355 216.386,319.764 212.027,317.357 207.372 C 316.874 206.438,314.542 204.887,313.977 205.124 C 313.917 205.150,313.428 205.282,312.891 205.417 M182.031 228.983 L 182.031 240.826 176.270 246.311 C 169.079 253.158,160.729 260.926,159.169 262.222 L 157.985 263.205 144.809 263.405 L 131.633 263.605 129.727 265.201 C 128.652 266.102,127.410 266.797,126.878 266.797 C 122.457 266.797,117.410 272.817,117.484 278.002 C 117.644 289.197,133.128 292.664,138.095 282.617 C 139.708 279.355,138.691 272.067,136.506 271.228 C 134.785 270.568,137.101 270.374,148.195 270.252 L 160.453 270.117 162.551 268.189 C 165.761 265.239,170.503 260.791,174.621 256.867 C 176.669 254.916,180.580 251.239,183.313 248.696 L 188.281 244.071 188.266 233.852 L 188.250 223.633 185.141 220.387 L 182.031 217.141 182.031 228.983 M167.608 221.514 C 165.361 223.762,166.256 227.499,169.281 228.497 C 173.584 229.917,176.793 224.556,173.570 221.333 C 172.027 219.789,169.249 219.874,167.608 221.514 M227.096 221.005 C 223.213 224.151,226.716 230.321,231.299 228.407 C 234.185 227.201,234.673 223.088,232.164 221.115 C 230.889 220.111,228.270 220.054,227.096 221.005 M156.741 228.918 C 154.660 229.754,153.718 233.079,154.963 235.187 C 157.434 239.370,163.415 237.125,162.762 232.261 C 162.372 229.351,159.554 227.786,156.741 228.918 M239.104 229.517 C 236.078 232.064,237.165 236.350,241.080 237.312 C 242.487 237.658,244.805 236.516,245.525 235.123 C 247.707 230.904,242.675 226.512,239.104 229.517 M96.110 232.500 C 86.391 236.231,86.876 250.878,96.814 253.767 C 101.607 255.160,108.465 252.701,109.580 249.188 C 109.835 248.384,111.114 248.166,111.539 248.854 C 111.681 249.083,112.509 249.786,113.379 250.416 L 114.961 251.563 136.875 251.551 L 158.789 251.539 162.305 248.246 L 165.820 244.953 141.406 244.931 L 116.992 244.908 114.258 242.519 C 112.566 241.041,111.383 239.666,111.154 238.912 C 109.578 233.721,101.689 230.358,96.110 232.500 M102.723 238.275 C 106.541 240.318,106.594 245.440,102.819 247.562 C 99.473 249.442,95.972 248.040,94.990 244.426 C 93.789 240.004,98.682 236.112,102.723 238.275 M302.332 238.471 C 304.787 239.740,305.955 242.803,304.862 245.107 C 302.927 249.184,297.073 249.485,295.069 245.609 C 292.707 241.043,297.741 236.096,302.332 238.471 M176.140 262.024 C 173.862 264.059,174.133 267.604,176.685 269.160 C 180.353 271.397,184.472 268.144,183.229 263.994 C 182.333 261.004,178.480 259.933,176.140 262.024 M106.595 262.845 C 104.584 264.856,104.479 266.869,106.280 268.920 C 109.945 273.094,116.042 268.634,113.470 263.659 C 112.076 260.963,108.858 260.582,106.595 262.845 M288.579 261.940 C 286.369 263.139,285.581 266.914,287.130 268.883 C 288.969 271.221,293.060 271.071,294.560 268.612 C 297.090 264.463,292.784 259.658,288.579 261.940 M208.876 269.834 L 206.250 272.481 206.250 275.068 L 206.250 277.655 201.758 281.844 L 197.266 286.034 197.266 291.200 L 197.266 296.366 195.764 297.043 C 186.426 301.254,187.285 316.010,197.027 318.738 C 211.099 322.678,218.167 304.063,205.208 297.188 L 203.516 296.290 203.533 293.165 L 203.550 290.039 205.867 287.555 L 208.184 285.071 214.521 291.168 L 220.858 297.266 228.624 297.266 L 236.390 297.266 236.134 298.431 C 234.288 306.838,248.339 312.742,253.643 305.787 C 260.734 296.492,252.331 285.236,241.602 289.656 C 239.373 290.574,238.873 290.621,231.445 290.612 L 223.633 290.602 221.484 288.607 C 220.303 287.509,217.710 285.043,215.723 283.126 L 212.109 279.641 212.109 273.414 C 212.109 266.216,212.280 266.404,208.876 269.834 M130.885 273.932 C 134.826 276.588,133.203 282.166,128.329 282.715 C 126.826 282.884,126.493 282.760,125.142 281.521 C 120.738 277.485,125.946 270.604,130.885 273.932 M274.013 273.434 C 277.906 274.914,278.022 280.260,274.204 282.234 C 271.846 283.453,269.451 282.567,268.113 279.980 C 266.190 276.260,270.084 271.940,274.013 273.434 M156.557 294.951 C 160.818 296.437,159.561 303.125,155.021 303.125 C 150.684 303.125,149.274 296.830,153.226 295.112 C 154.781 294.436,155.044 294.424,156.557 294.951 M248.043 295.115 C 250.587 296.431,251.186 299.385,249.351 301.566 C 247.485 303.784,245.365 303.898,243.355 301.889 C 239.882 298.416,243.715 292.877,248.043 295.115 M203.516 302.832 C 208.252 306.065,206.072 313.430,200.402 313.352 C 192.906 313.248,193.125 302.094,200.626 301.978 C 201.678 301.962,202.671 302.255,203.516 302.832 " stroke="none" fill="#f8f9fa" fill-rule="evenodd"></path><path id="path2" d="M194.141 69.909 C 189.227 70.248,187.752 70.412,181.641 71.298 C 181.104 71.376,179.873 71.549,178.906 71.682 C 165.017 73.603,147.296 80.134,133.398 88.454 C 130.516 90.180,127.729 91.569,126.953 91.666 C 124.173 92.015,121.527 89.013,122.007 86.054 C 122.295 84.280,121.737 84.376,118.294 86.695 C 114.496 89.254,110.750 92.276,106.338 96.343 L 102.715 99.682 100.088 97.559 C 92.300 91.265,86.091 83.754,82.257 75.987 C 79.873 71.159,79.615 70.906,78.762 72.559 C 73.520 82.716,73.147 105.497,78.081 114.239 L 79.212 116.244 76.890 116.685 C 73.886 117.256,73.441 117.643,73.702 119.458 C 74.064 121.972,75.319 127.892,75.705 128.906 C 76.035 129.772,75.940 129.949,74.868 130.469 C 73.340 131.209,66.797 146.421,66.797 149.232 C 66.797 150.960,69.432 153.690,71.637 154.245 C 73.376 154.683,75.831 156.904,76.336 158.496 C 76.471 158.919,75.885 161.971,75.035 165.277 C 65.747 201.407,71.977 239.895,92.004 270.117 C 132.765 331.630,217.580 346.617,277.560 302.905 C 320.021 271.962,339.164 215.795,325.008 163.698 C 323.444 157.943,324.724 154.725,328.842 154.067 C 331.245 153.682,333.741 150.906,333.493 148.893 C 332.940 144.409,326.841 131.109,325.255 130.927 C 324.319 130.820,324.182 130.666,324.391 129.951 C 325.662 125.600,326.260 122.782,326.447 120.250 L 326.669 117.257 324.436 116.978 C 321.920 116.664,321.551 116.212,322.427 114.519 C 324.597 110.323,325.452 105.916,325.670 97.806 C 325.937 87.924,324.688 79.587,322.036 73.535 C 320.856 70.844,320.518 70.936,318.948 74.380 C 315.169 82.673,309.718 89.576,301.239 96.807 L 297.986 99.581 294.012 96.045 C 284.916 87.949,277.126 82.723,278.143 85.400 C 279.047 87.776,277.174 91.030,274.609 91.543 C 273.087 91.847,271.658 91.263,267.230 88.524 C 246.008 75.397,217.991 68.261,194.141 69.909 M202.650 83.813 C 206.324 86.387,204.803 91.992,200.430 91.992 C 196.239 91.992,194.138 87.056,197.174 84.343 C 198.649 83.025,201.176 82.781,202.650 83.813 M184.701 86.971 C 185.954 87.782,186.846 90.071,186.575 91.778 C 185.789 96.733,178.382 96.405,177.870 91.394 C 177.457 87.353,181.373 84.818,184.701 86.971 M220.988 86.956 C 224.622 89.257,222.969 95.313,218.706 95.313 C 215.789 95.313,214.063 93.629,214.063 90.783 C 214.063 86.956,217.760 84.913,220.988 86.956 M83.188 89.347 C 86.784 97.032,94.484 105.767,104.615 113.653 C 110.225 118.020,135.152 134.430,137.607 135.372 C 138.194 135.597,138.278 136.575,138.372 144.275 L 138.477 152.925 151.758 159.611 C 159.063 163.288,165.595 166.482,166.274 166.709 L 167.508 167.123 166.974 168.620 C 166.681 169.443,166.433 170.678,166.423 171.364 C 166.414 172.049,166.235 172.716,166.025 172.846 C 165.071 173.435,141.224 161.971,134.863 157.865 L 131.641 155.784 131.635 148.107 L 131.630 140.430 119.233 134.089 C 99.613 124.054,95.109 121.430,90.891 117.575 C 84.319 111.568,80.752 101.215,81.506 90.332 C 81.804 86.024,81.669 86.103,83.188 89.347 M318.716 92.324 C 318.979 112.577,314.107 117.781,278.418 135.368 L 268.359 140.325 268.359 148.090 L 268.359 155.854 266.699 157.059 C 262.601 160.033,234.608 173.047,232.309 173.047 C 232.017 173.047,231.423 171.894,230.936 170.382 C 229.934 167.272,229.925 167.192,230.566 167.174 C 231.344 167.153,245.170 160.954,253.782 156.765 L 261.666 152.930 261.790 144.336 L 261.914 135.742 266.602 133.062 C 292.533 118.236,309.218 103.984,316.397 90.527 C 317.515 88.433,318.477 86.719,318.536 86.719 C 318.595 86.719,318.676 89.241,318.716 92.324 M166.516 93.501 C 171.135 95.455,169.984 102.344,165.039 102.344 C 160.271 102.344,158.996 95.458,163.408 93.539 C 164.969 92.860,165.002 92.860,166.516 93.501 M238.541 94.613 C 240.696 96.768,239.814 100.822,236.953 101.913 C 232.280 103.696,228.702 97.742,232.439 94.402 C 234.072 92.943,236.971 93.043,238.541 94.613 M149.937 100.366 C 156.012 103.498,157.229 111.558,152.362 116.425 C 144.915 123.872,132.738 116.330,135.709 106.110 C 137.458 100.093,144.160 97.388,149.937 100.366 M260.070 100.347 C 266.122 103.434,267.033 112.145,261.798 116.874 C 257.521 120.738,250.293 119.872,247.014 115.103 C 240.852 106.138,250.360 95.393,260.070 100.347 M127.774 103.628 C 130.255 105.297,130.560 108.566,128.445 110.817 C 126.665 112.712,122.831 112.274,121.456 110.018 C 118.786 105.641,123.573 100.800,127.774 103.628 M278.198 104.190 C 279.610 105.602,279.964 107.568,279.154 109.505 C 277.290 113.967,269.874 111.974,270.417 107.158 C 270.874 103.103,275.389 101.380,278.198 104.190 M142.608 106.480 C 140.016 108.661,141.696 113.281,145.081 113.281 C 148.566 113.281,150.497 108.622,147.927 106.411 C 146.409 105.106,144.208 105.134,142.608 106.480 M252.878 106.161 C 249.520 108.881,251.755 113.965,255.941 113.128 C 260.817 112.153,260.169 105.448,255.201 105.477 C 254.382 105.482,253.336 105.790,252.878 106.161 M190.414 109.145 C 194.075 109.126,200.693 108.971,205.120 108.801 C 218.123 108.300,224.650 110.629,229.338 117.443 C 230.207 118.706,230.972 119.273,232.659 119.904 C 240.711 122.916,244.002 130.070,240.395 136.719 C 238.990 139.310,238.406 139.581,238.600 137.554 C 239.607 126.989,212.037 130.805,208.418 141.732 C 206.693 146.941,208.189 151.271,214.445 159.180 C 224.344 171.693,225.606 174.978,225.553 188.086 C 225.516 197.056,225.272 198.394,222.229 206.283 C 220.725 210.185,220.756 210.196,218.985 205.176 C 216.027 196.795,213.568 192.237,205.493 180.165 C 193.194 161.777,189.201 153.753,187.696 144.401 C 187.359 142.306,187.180 140.436,187.298 140.245 C 187.416 140.054,187.344 139.793,187.137 139.665 C 186.319 139.160,184.943 146.755,185.301 149.801 C 186.281 158.143,189.683 165.442,199.412 180.078 C 210.350 196.533,213.424 202.938,218.001 218.808 C 222.462 234.274,223.636 236.215,235.628 247.949 L 241.317 253.516 258.268 253.516 L 275.218 253.516 279.859 249.316 C 282.411 247.007,285.303 244.441,286.284 243.614 C 287.588 242.516,288.181 241.666,288.487 240.461 C 291.978 226.715,312.507 229.995,311.228 244.094 C 310.346 253.823,297.693 258.190,291.473 250.913 L 289.995 249.184 289.024 250.080 C 286.028 252.846,278.571 259.333,277.745 259.892 C 276.875 260.482,274.922 260.547,258.004 260.547 L 239.228 260.547 235.532 257.330 C 221.544 245.156,217.582 240.285,207.883 223.334 C 204.839 218.013,200.609 211.059,198.483 207.880 C 192.768 199.335,188.531 192.322,185.115 185.753 C 183.323 182.305,181.987 180.140,181.863 180.479 C 180.646 183.798,180.533 186.505,181.515 188.853 C 183.570 193.765,188.592 202.272,195.706 212.891 C 199.948 219.222,202.224 223.207,206.665 232.080 C 215.152 249.037,217.811 252.520,234.253 268.217 L 241.358 275.000 251.246 275.000 L 261.134 275.000 262.079 273.218 C 267.732 262.563,283.008 266.002,283.008 277.930 C 283.008 288.027,271.260 292.527,264.116 285.165 C 263.246 284.268,262.426 283.196,262.295 282.783 C 262.067 282.063,261.555 282.031,249.999 282.031 L 237.940 282.031 226.243 270.410 C 212.872 257.125,208.496 251.734,204.855 244.060 C 203.677 241.577,203.516 242.703,203.487 253.636 L 203.459 264.258 201.213 266.211 C 198.642 268.447,185.713 280.322,181.046 284.733 C 179.323 286.362,175.174 290.212,171.825 293.287 C 165.938 298.695,165.723 298.947,165.269 300.973 C 162.424 313.686,143.970 310.914,145.012 297.930 C 145.682 289.594,154.795 285.591,161.420 290.723 L 162.880 291.854 170.928 284.501 C 175.355 280.457,180.148 276.117,181.578 274.856 C 183.009 273.595,186.377 270.504,189.063 267.987 C 191.748 265.471,194.604 262.837,195.410 262.134 L 196.875 260.857 196.875 243.745 L 196.875 226.634 192.979 220.641 C 177.198 196.366,174.692 189.789,174.625 172.461 C 174.538 150.153,180.436 134.116,192.383 124.176 C 195.655 121.454,198.255 119.141,197.168 119.919 C 196.792 120.188,196.484 120.310,196.484 120.190 C 196.484 120.069,195.328 120.495,193.915 121.136 C 182.244 126.428,170.996 127.191,163.643 123.189 C 161.007 121.754,161.117 121.685,166.116 121.639 C 171.786 121.587,176.943 120.294,184.144 117.120 C 186.981 115.870,187.779 115.234,186.510 115.234 C 184.379 115.234,180.582 112.182,179.529 109.620 C 178.378 106.824,178.600 106.622,181.332 107.977 L 183.757 109.180 190.414 109.145 M210.747 117.615 C 212.679 123.853,216.835 125.536,223.242 122.674 L 224.805 121.976 223.086 120.369 C 220.886 118.312,217.880 117.198,213.741 116.906 L 210.455 116.674 210.747 117.615 M85.086 126.143 C 88.415 128.937,93.420 131.757,108.703 139.452 L 123.828 147.067 123.828 151.986 L 123.828 156.905 129.424 161.421 C 138.476 168.728,140.569 169.755,163.281 178.034 L 165.430 178.817 165.711 181.868 C 165.866 183.546,165.939 184.972,165.874 185.037 C 165.724 185.188,159.277 183.283,151.691 180.847 C 148.432 179.800,144.674 178.661,143.341 178.315 C 140.801 177.657,140.745 177.618,129.297 168.311 C 127.041 166.478,123.481 163.695,121.387 162.129 L 117.578 159.280 117.578 155.486 L 117.578 151.692 108.901 149.051 C 96.511 145.279,93.079 143.367,88.869 137.891 C 86.332 134.591,85.153 132.027,82.990 125.098 C 82.745 124.314,83.144 124.513,85.086 126.143 M316.423 128.070 C 312.753 140.391,306.959 144.908,288.281 150.008 L 283.008 151.448 282.813 155.204 C 282.675 157.841,282.443 159.121,282.031 159.502 C 281.505 159.988,269.604 169.368,262.277 175.072 C 259.637 177.127,258.948 177.439,253.052 179.253 C 235.891 184.533,233.931 185.081,233.797 184.634 C 233.721 184.384,233.565 183.014,233.450 181.589 L 233.241 178.998 241.523 175.995 C 262.329 168.453,261.682 168.797,273.730 158.869 L 276.563 156.536 276.563 151.803 L 276.564 147.070 292.677 138.985 C 308.916 130.836,312.128 129.021,315.272 126.218 C 317.350 124.366,317.469 124.558,316.423 128.070 M153.841 145.975 C 156.057 147.361,156.268 151.466,154.199 152.916 C 152.825 153.878,150.261 153.685,148.871 152.516 C 144.800 149.089,149.316 143.146,153.841 145.975 M251.593 146.454 C 254.325 149.187,252.430 153.516,248.502 153.516 C 246.806 153.516,246.423 153.360,245.543 152.314 C 243.106 149.418,244.918 145.313,248.633 145.313 C 250.121 145.313,250.658 145.519,251.593 146.454 M89.258 153.529 C 91.191 153.921,94.163 154.562,95.862 154.953 L 98.951 155.664 102.288 160.742 C 104.440 164.018,106.948 167.191,109.355 169.683 L 113.086 173.545 109.180 173.273 C 95.344 172.309,93.334 171.116,86.720 159.942 C 81.649 151.375,81.426 151.940,89.258 153.529 M317.969 152.527 C 317.969 153.300,309.310 166.991,307.907 168.435 C 304.930 171.502,301.128 172.584,291.016 173.242 L 286.914 173.509 289.864 170.446 C 293.378 166.797,296.111 163.277,297.617 160.457 C 299.719 156.523,300.200 155.837,300.977 155.658 C 310.191 153.543,317.969 152.110,317.969 152.527 M110.742 159.505 C 113.903 160.835,135.084 178.299,132.189 177.188 C 131.846 177.056,129.623 176.501,127.249 175.955 C 121.980 174.741,115.971 170.265,109.998 163.102 C 105.876 158.161,106.010 157.514,110.742 159.505 M292.343 160.247 C 290.764 162.572,284.390 169.117,280.719 172.184 C 277.669 174.731,277.620 174.754,273.297 175.663 C 270.904 176.166,268.638 176.674,268.262 176.792 C 266.802 177.249,267.811 176.225,272.428 172.566 C 275.066 170.475,279.197 167.048,281.608 164.949 C 287.788 159.568,287.581 159.707,290.510 158.978 C 293.743 158.174,293.748 158.178,292.343 160.247 M276.856 183.690 C 276.671 184.245,269.172 190.110,264.959 192.995 L 262.145 194.922 258.904 194.923 C 257.122 194.923,253.115 195.192,250.000 195.519 C 244.004 196.150,243.269 196.225,236.577 196.888 C 231.571 197.384,231.963 197.579,232.649 194.934 C 232.954 193.759,233.203 192.481,233.203 192.093 C 233.203 191.006,236.383 190.251,253.320 187.321 C 256.543 186.764,261.904 185.795,265.234 185.169 C 270.752 184.131,275.150 183.383,276.497 183.253 C 276.784 183.226,276.945 183.422,276.856 183.690 M101.430 187.231 C 107.303 192.276,111.472 195.504,113.928 196.910 C 115.076 197.567,116.016 198.206,116.016 198.331 C 116.016 199.216,94.271 197.954,92.452 196.964 C 90.044 195.653,81.250 185.348,81.250 183.836 C 81.250 183.703,84.838 183.594,89.223 183.594 L 97.197 183.594 101.430 187.231 M114.738 183.827 C 115.394 183.958,118.613 186.184,122.111 188.925 C 125.526 191.601,129.463 194.484,130.859 195.331 L 133.398 196.871 127.894 196.873 L 122.390 196.875 119.154 194.930 C 116.005 193.037,110.379 188.686,106.699 185.298 L 104.883 183.625 109.229 183.609 C 111.619 183.601,114.098 183.699,114.738 183.827 M129.883 184.362 C 132.676 184.782,136.631 185.471,138.672 185.893 C 140.713 186.315,144.668 187.028,147.461 187.477 C 152.057 188.217,166.117 190.956,166.245 191.137 C 166.537 191.550,167.614 196.970,167.439 197.145 C 167.311 197.272,164.873 197.093,162.021 196.747 C 159.169 196.400,155.693 196.014,154.297 195.889 C 152.900 195.764,150.264 195.496,148.438 195.295 C 146.611 195.093,143.447 194.921,141.406 194.913 L 137.695 194.897 131.600 190.320 C 122.540 183.515,122.642 183.603,123.828 183.601 C 124.365 183.600,127.090 183.942,129.883 184.362 M294.482 184.637 C 292.495 186.785,283.506 193.675,280.410 195.423 C 276.942 197.382,274.034 197.764,268.835 196.944 L 267.162 196.680 272.350 192.972 C 275.204 190.932,278.945 188.120,280.664 186.722 L 283.789 184.180 288.767 183.984 C 291.505 183.877,294.119 183.754,294.577 183.712 C 295.398 183.636,295.396 183.650,294.482 184.637 M318.750 183.807 C 318.750 184.744,312.065 193.517,309.907 195.413 C 307.117 197.862,306.876 197.908,295.146 198.217 C 289.222 198.373,284.375 198.407,284.375 198.293 C 284.375 198.178,285.210 197.517,286.230 196.824 C 289.642 194.508,296.336 189.133,299.258 186.365 L 302.148 183.627 310.449 183.610 C 315.015 183.601,318.750 183.690,318.750 183.807 M171.841 206.432 C 172.934 208.036,173.828 209.442,173.828 209.557 C 173.828 209.672,171.324 209.766,168.264 209.766 L 162.700 209.766 150.340 222.121 L 137.979 234.477 133.931 234.407 L 129.883 234.338 126.465 230.947 C 124.585 229.081,123.047 227.464,123.047 227.352 C 123.046 227.240,125.886 227.208,129.356 227.281 L 135.667 227.415 147.326 215.758 L 158.986 204.102 162.403 203.876 C 164.283 203.752,166.728 203.620,167.837 203.583 L 169.853 203.516 171.841 206.432 M252.337 215.430 L 264.274 227.344 270.809 227.344 C 274.403 227.344,277.344 227.464,277.344 227.611 C 277.344 227.758,275.842 229.340,274.006 231.126 L 270.669 234.375 266.306 234.375 L 261.942 234.375 249.615 222.070 L 237.289 209.766 231.926 209.766 C 228.976 209.766,226.563 209.668,226.563 209.549 C 226.563 209.430,227.235 208.331,228.058 207.107 C 228.880 205.884,229.666 204.575,229.803 204.199 C 230.024 203.595,230.656 203.516,235.227 203.516 L 240.401 203.516 252.337 215.430 M132.875 204.980 C 132.451 205.571,130.138 208.120,127.736 210.645 L 123.370 215.234 119.018 215.234 L 114.667 215.234 117.773 218.359 L 120.880 221.484 117.019 221.484 L 113.157 221.484 111.118 219.945 C 108.666 218.094,100.000 209.820,100.000 209.331 C 100.000 209.138,104.472 208.984,110.070 208.984 L 120.140 208.984 122.656 206.445 L 125.173 203.906 129.410 203.906 L 133.647 203.906 132.875 204.980 M148.047 204.309 C 148.047 204.686,144.739 208.238,135.916 217.333 L 132.175 221.190 127.997 221.252 C 125.700 221.286,123.866 221.195,123.922 221.051 C 123.978 220.906,127.539 217.159,131.836 212.724 C 136.133 208.289,139.707 204.490,139.779 204.283 C 139.958 203.763,148.047 203.788,148.047 204.309 M267.922 212.452 C 272.460 217.152,276.172 221.107,276.172 221.241 C 276.172 221.375,274.447 221.484,272.340 221.484 L 268.508 221.484 261.239 214.160 C 254.221 207.089,251.953 204.642,251.953 204.143 C 251.953 204.013,253.690 203.906,255.813 203.906 L 259.673 203.906 267.922 212.452 M277.627 206.543 L 280.273 209.180 290.137 209.078 C 295.562 209.022,300.000 209.119,300.000 209.293 C 300.000 209.609,293.432 216.121,289.568 219.635 L 287.533 221.484 283.610 221.484 C 278.941 221.484,278.977 221.583,282.422 218.164 C 285.817 214.795,285.908 215.015,281.188 215.164 L 277.217 215.289 273.346 211.453 C 271.217 209.343,268.768 206.782,267.904 205.762 L 266.334 203.906 270.657 203.906 L 274.981 203.906 277.627 206.543 M88.639 205.647 C 90.793 206.761,91.573 209.823,90.254 211.987 C 87.499 216.505,80.665 213.528,82.074 208.424 C 82.849 205.617,86.002 204.283,88.639 205.647 M316.369 206.083 C 319.758 208.935,318.012 214.169,313.672 214.169 C 309.296 214.169,307.558 208.959,310.975 206.083 C 312.596 204.719,314.748 204.719,316.369 206.083 M185.373 220.508 L 188.477 224.023 188.281 234.245 L 188.086 244.467 184.180 248.083 C 182.031 250.071,177.109 254.717,173.242 258.407 C 169.375 262.096,164.893 266.283,163.281 267.711 L 160.352 270.306 148.114 270.309 L 135.877 270.313 137.226 271.889 C 143.202 278.871,135.889 290.273,126.509 288.598 C 114.550 286.462,114.174 270.394,125.999 266.847 C 127.647 266.352,129.086 265.591,130.092 264.683 L 131.643 263.281 144.705 263.281 L 157.768 263.281 160.232 261.051 C 163.528 258.067,166.856 254.951,174.902 247.316 L 181.641 240.923 181.641 228.827 C 181.641 222.175,181.782 216.790,181.955 216.862 C 182.127 216.934,183.665 218.574,185.373 220.508 M172.652 220.506 C 174.278 221.346,175.000 222.588,175.000 224.540 C 175.000 229.186,168.632 230.591,166.636 226.385 C 164.766 222.445,168.792 218.510,172.652 220.506 M232.715 221.660 C 234.525 223.621,234.504 225.731,232.656 227.578 C 228.579 231.655,222.631 225.637,226.492 221.341 C 228.175 219.469,230.816 219.604,232.715 221.660 M161.172 229.111 C 161.623 229.396,162.290 230.255,162.653 231.021 C 164.795 235.535,159.136 239.683,155.625 236.172 C 151.712 232.259,156.503 226.161,161.172 229.111 M244.141 229.242 C 248.890 232.603,244.611 239.581,239.440 236.907 C 237.193 235.745,236.492 232.853,237.900 230.544 C 239.315 228.222,241.929 227.677,244.141 229.242 M105.336 232.662 C 107.648 233.757,109.923 236.092,110.958 238.432 C 111.395 239.419,112.679 240.916,114.267 242.288 L 116.861 244.531 141.471 244.531 C 155.824 244.531,166.026 244.677,165.951 244.882 C 165.879 245.074,164.283 246.656,162.404 248.397 L 158.988 251.563 136.677 251.563 L 114.366 251.563 112.409 249.924 L 110.453 248.286 109.638 249.436 C 104.004 257.387,91.910 255.470,89.215 246.199 C 86.436 236.641,96.282 228.373,105.336 232.662 M97.516 238.632 C 93.749 241.116,94.191 246.184,98.325 247.911 C 101.437 249.212,105.464 246.439,105.467 242.993 C 105.471 239.237,100.628 236.581,97.516 238.632 M298.242 238.151 C 295.200 238.961,293.657 243.104,295.415 245.743 C 297.466 248.821,300.964 249.109,303.663 246.423 C 307.263 242.838,303.308 236.803,298.242 238.151 M182.324 262.275 C 185.104 265.309,183.335 269.893,179.375 269.913 C 176.242 269.929,174.391 268.173,174.468 265.255 C 174.581 260.920,179.405 259.090,182.324 262.275 M110.814 261.353 C 114.713 262.826,115.534 267.114,112.419 269.734 C 108.491 273.040,102.724 267.899,105.574 263.632 C 106.967 261.547,108.995 260.665,110.814 261.353 M293.694 262.317 C 298.341 266.227,293.208 273.109,288.010 269.939 C 287.173 269.429,286.608 268.668,286.298 267.632 C 284.939 263.097,290.161 259.344,293.694 262.317 M212.482 274.805 L 212.509 279.883 218.227 285.254 L 223.945 290.625 231.456 290.625 C 238.817 290.625,239.014 290.604,241.261 289.559 C 252.193 284.476,261.626 297.423,253.376 306.187 C 247.432 312.500,235.987 308.144,235.946 299.554 C 235.935 297.214,236.123 297.266,227.655 297.266 L 220.608 297.266 214.385 291.341 L 208.162 285.417 205.839 287.716 L 203.516 290.015 203.516 293.157 L 203.516 296.300 205.486 297.236 C 216.800 302.607,213.051 319.400,200.557 319.313 C 188.005 319.225,184.387 302.648,195.664 296.895 L 197.266 296.078 197.268 290.910 L 197.270 285.742 201.760 281.515 L 206.250 277.287 206.250 274.618 L 206.250 271.948 209.082 269.326 L 211.914 266.703 212.185 268.215 C 212.333 269.046,212.467 272.012,212.482 274.805 M126.205 273.731 C 121.309 276.237,124.003 283.847,129.283 282.426 C 133.722 281.230,134.085 275.363,129.830 273.585 C 128.171 272.893,127.815 272.907,126.205 273.731 M269.876 274.025 C 267.433 275.352,267.063 279.026,269.147 281.257 C 271.096 283.343,275.020 282.684,276.387 280.040 C 278.479 275.994,273.950 271.811,269.876 274.025 M152.424 295.891 C 149.314 298.508,151.713 303.697,155.688 302.951 C 157.523 302.607,158.984 300.752,158.984 298.768 C 158.984 295.394,155.060 293.673,152.424 295.891 M243.329 296.064 C 241.641 297.752,241.714 299.995,243.516 301.797 C 245.596 303.878,248.704 303.281,249.831 300.584 C 251.548 296.473,246.459 292.934,243.329 296.064 M198.076 302.824 C 194.146 304.840,193.902 309.914,197.616 312.395 C 201.033 314.677,205.861 312.033,205.858 307.880 C 205.854 303.430,201.901 300.862,198.076 302.824 " stroke="none" fill="#0b2b3f" fill-rule="evenodd"></path><path id="path3" d="M178.865 144.824 C 178.295 146.305,175.802 156.066,175.554 157.781 C 175.444 158.550,175.282 159.392,175.195 159.652 C 174.789 160.865,174.525 171.891,174.891 172.353 C 175.108 172.627,175.755 174.521,176.328 176.563 C 176.901 178.604,177.615 180.801,177.915 181.446 C 178.215 182.091,178.844 183.497,179.312 184.571 L 180.164 186.523 180.877 183.065 C 181.797 178.607,181.681 178.615,183.810 182.854 C 187.576 190.352,192.066 197.881,198.811 208.008 C 201.101 211.445,205.230 218.213,207.987 223.047 C 215.661 236.502,219.326 241.859,216.409 235.357 C 215.784 233.964,214.190 229.613,212.868 225.689 C 209.290 215.072,208.463 213.030,204.276 204.492 C 200.134 196.046,199.345 194.588,194.637 186.671 C 183.404 167.781,178.936 156.121,179.360 146.799 C 179.512 143.435,179.467 143.256,178.865 144.824 M194.968 163.184 C 197.344 167.370,199.273 170.416,205.271 179.456 C 214.033 192.662,217.019 198.242,219.557 206.152 C 220.662 209.593,220.645 209.591,221.954 206.431 C 222.534 205.030,222.869 203.970,222.699 204.075 C 222.528 204.181,222.357 203.374,222.318 202.282 C 222.020 193.846,215.292 181.632,206.000 172.656 C 203.887 170.615,200.320 167.144,198.072 164.941 C 195.825 162.739,193.920 160.938,193.839 160.938 C 193.759 160.938,194.266 161.948,194.968 163.184 M301.432 162.698 C 300.394 162.983,298.710 163.332,297.691 163.472 C 295.967 163.709,295.702 163.906,293.914 166.285 C 292.857 167.692,290.938 169.813,289.648 170.997 L 287.305 173.151 291.211 172.906 C 293.359 172.771,295.718 172.659,296.452 172.658 C 297.186 172.657,297.699 172.569,297.592 172.462 C 297.485 172.355,298.115 171.517,298.992 170.599 C 300.482 169.040,302.556 165.611,303.483 163.173 C 303.937 161.977,304.002 161.992,301.432 162.698 M96.682 163.325 C 97.440 165.814,99.927 169.778,101.620 171.196 L 103.436 172.717 108.055 172.944 L 112.673 173.172 109.141 169.691 C 107.198 167.777,105.292 165.668,104.906 165.004 C 104.279 163.929,103.900 163.747,101.418 163.337 C 99.886 163.083,98.130 162.767,97.515 162.634 C 96.481 162.410,96.419 162.462,96.682 163.325 M299.121 188.826 C 297.671 189.085,296.482 189.200,296.478 189.082 C 296.475 188.964,296.343 189.059,296.185 189.295 C 295.759 189.930,289.632 194.762,287.238 196.350 C 286.093 197.110,285.156 197.911,285.156 198.130 C 285.156 198.877,290.305 198.043,292.277 196.977 C 293.842 196.131,302.344 188.923,302.344 188.442 C 302.344 188.248,302.406 188.241,299.121 188.826 M60.672 191.016 C 60.672 192.412,60.743 192.983,60.829 192.285 C 60.916 191.587,60.916 190.444,60.829 189.746 C 60.743 189.048,60.672 189.619,60.672 191.016 M98.898 189.780 C 101.041 192.198,106.922 197.054,108.196 197.459 C 108.636 197.598,108.908 197.854,108.802 198.027 C 108.695 198.199,110.223 198.370,112.198 198.406 C 114.174 198.442,115.709 198.397,115.610 198.306 C 115.511 198.214,113.936 197.133,112.109 195.903 C 110.283 194.673,107.550 192.658,106.036 191.425 C 103.418 189.292,103.153 189.172,100.637 188.970 L 97.991 188.757 98.898 189.780 M269.602 195.255 C 268.893 195.834,268.440 196.435,268.596 196.591 C 269.137 197.132,276.909 196.904,278.341 196.306 C 281.670 194.915,281.420 194.719,276.494 194.857 C 273.742 194.935,271.646 194.827,271.366 194.595 C 271.031 194.317,270.513 194.511,269.602 195.255 M129.297 194.932 C 129.297 195.127,127.319 195.337,124.902 195.397 L 120.508 195.508 121.781 196.203 C 122.842 196.783,123.844 196.881,127.783 196.789 L 132.512 196.680 130.904 195.628 C 130.020 195.050,129.297 194.737,129.297 194.932 M136.621 263.557 C 137.104 263.650,137.896 263.650,138.379 263.557 C 138.862 263.464,138.467 263.388,137.500 263.388 C 136.533 263.388,136.138 263.464,136.621 263.557 M256.934 275.276 C 257.417 275.369,258.208 275.369,258.691 275.276 C 259.175 275.183,258.779 275.106,257.813 275.106 C 256.846 275.106,256.450 275.183,256.934 275.276 " stroke="none" fill="#45baf7" fill-rule="evenodd"></path><path id="path4" d="M199.121 59.665 C 200.679 59.739,203.228 59.739,204.785 59.665 C 206.343 59.591,205.068 59.530,201.953 59.530 C 198.838 59.530,197.563 59.591,199.121 59.665 M210.645 70.191 C 211.021 70.289,211.636 70.289,212.012 70.191 C 212.388 70.093,212.080 70.013,211.328 70.013 C 210.576 70.013,210.269 70.093,210.645 70.191 M195.794 87.500 C 195.794 88.252,195.874 88.560,195.972 88.184 C 196.071 87.808,196.071 87.192,195.972 86.816 C 195.874 86.440,195.794 86.748,195.794 87.500 M318.476 90.234 C 318.476 91.416,318.550 91.899,318.639 91.309 C 318.729 90.718,318.729 89.751,318.639 89.160 C 318.550 88.569,318.476 89.053,318.476 90.234 M177.833 90.820 C 177.837 91.680,177.917 91.985,178.011 91.499 C 178.104 91.013,178.101 90.310,178.003 89.937 C 177.905 89.563,177.829 89.961,177.833 90.820 M186.419 91.016 C 186.419 91.768,186.499 92.075,186.597 91.699 C 186.696 91.323,186.696 90.708,186.597 90.332 C 186.499 89.956,186.419 90.264,186.419 91.016 M199.707 92.066 C 200.083 92.164,200.698 92.164,201.074 92.066 C 201.450 91.968,201.143 91.888,200.391 91.888 C 199.639 91.888,199.331 91.968,199.707 92.066 M239.544 97.656 C 239.544 98.408,239.624 98.716,239.722 98.340 C 239.821 97.964,239.821 97.349,239.722 96.973 C 239.624 96.597,239.544 96.904,239.544 97.656 M274.316 103.004 C 274.692 103.102,275.308 103.102,275.684 103.004 C 276.060 102.905,275.752 102.825,275.000 102.825 C 274.248 102.825,273.940 102.905,274.316 103.004 M254.785 105.347 C 255.161 105.446,255.776 105.446,256.152 105.347 C 256.528 105.249,256.221 105.169,255.469 105.169 C 254.717 105.169,254.409 105.249,254.785 105.347 M155.185 109.375 C 155.185 110.342,155.261 110.737,155.354 110.254 C 155.447 109.771,155.447 108.979,155.354 108.496 C 155.261 108.013,155.185 108.408,155.185 109.375 M200.879 108.863 C 201.255 108.961,201.870 108.961,202.246 108.863 C 202.622 108.765,202.314 108.684,201.563 108.684 C 200.811 108.684,200.503 108.765,200.879 108.863 M188.978 109.663 C 190.113 109.743,191.871 109.742,192.884 109.662 C 193.897 109.581,192.969 109.517,190.820 109.518 C 188.672 109.519,187.843 109.584,188.978 109.663 M274.316 111.988 C 274.692 112.086,275.308 112.086,275.684 111.988 C 276.060 111.890,275.752 111.809,275.000 111.809 C 274.248 111.809,273.940 111.890,274.316 111.988 M90.039 116.797 C 91.097 117.871,92.051 118.750,92.158 118.750 C 92.266 118.750,91.488 117.871,90.430 116.797 C 89.372 115.723,88.418 114.844,88.311 114.844 C 88.203 114.844,88.981 115.723,90.039 116.797 M137.109 115.357 C 137.109 115.424,137.681 115.995,138.379 116.626 L 139.648 117.773 138.501 116.504 C 137.432 115.321,137.109 115.055,137.109 115.357 M152.124 116.504 L 150.977 117.773 152.246 116.626 C 153.429 115.557,153.695 115.234,153.393 115.234 C 153.326 115.234,152.755 115.806,152.124 116.504 M144.829 119.417 C 145.315 119.510,146.018 119.507,146.391 119.409 C 146.765 119.311,146.367 119.235,145.508 119.239 C 144.648 119.243,144.343 119.323,144.829 119.417 M197.656 119.489 C 197.656 119.762,197.446 119.847,197.168 119.687 C 196.899 119.532,196.810 119.550,196.969 119.726 C 197.129 119.901,197.051 120.325,196.797 120.667 C 196.543 121.009,196.754 120.898,197.267 120.421 C 197.779 119.944,198.077 119.431,197.928 119.282 C 197.778 119.132,197.656 119.226,197.656 119.489 M189.246 127.051 L 186.914 129.492 189.355 127.161 C 191.623 124.995,191.976 124.609,191.687 124.609 C 191.627 124.609,190.528 125.708,189.246 127.051 M315.986 125.681 C 315.231 126.535,315.209 126.609,315.877 126.048 C 316.523 125.505,316.761 125.460,316.912 125.855 C 317.020 126.137,317.088 125.972,317.065 125.488 C 317.012 124.417,317.120 124.398,315.986 125.681 M229.206 131.142 C 229.908 131.229,230.963 131.228,231.550 131.138 C 232.137 131.049,231.562 130.978,230.273 130.980 C 228.984 130.983,228.504 131.056,229.206 131.142 M261.885 144.336 C 261.886 149.063,261.942 150.942,262.011 148.514 C 262.079 146.085,262.079 142.217,262.010 139.920 C 261.941 137.622,261.885 139.609,261.885 144.336 M131.805 147.852 C 131.804 152.148,131.861 153.960,131.932 151.876 C 132.002 149.793,132.002 146.277,131.932 144.064 C 131.862 141.850,131.805 143.555,131.805 147.852 M207.534 145.508 C 207.537 146.582,207.612 146.975,207.702 146.381 C 207.792 145.788,207.790 144.909,207.697 144.428 C 207.604 143.948,207.531 144.434,207.534 145.508 M147.356 149.219 C 147.356 149.971,147.437 150.278,147.535 149.902 C 147.633 149.526,147.633 148.911,147.535 148.535 C 147.437 148.159,147.356 148.467,147.356 149.219 M282.558 155.078 C 282.558 156.904,282.626 157.651,282.708 156.738 C 282.790 155.825,282.790 154.331,282.708 153.418 C 282.626 152.505,282.558 153.252,282.558 155.078 M81.250 183.961 C 81.250 184.163,81.453 184.454,81.701 184.608 C 81.977 184.778,82.046 184.715,81.878 184.444 C 81.679 184.121,83.700 183.970,89.338 183.886 L 97.070 183.772 89.160 183.683 C 84.415 183.629,81.250 183.741,81.250 183.961 M107.924 183.883 C 109.168 183.961,111.101 183.960,112.221 183.881 C 113.341 183.803,112.324 183.739,109.961 183.740 C 107.598 183.741,106.681 183.805,107.924 183.883 M306.760 183.885 C 309.081 183.955,312.772 183.954,314.963 183.885 C 317.153 183.815,315.254 183.759,310.742 183.759 C 306.230 183.759,304.438 183.816,306.760 183.885 M329.388 188.672 C 329.388 189.424,329.468 189.731,329.566 189.355 C 329.664 188.979,329.664 188.364,329.566 187.988 C 329.468 187.612,329.388 187.920,329.388 188.672 M70.802 189.648 C 70.806 190.508,70.886 190.813,70.979 190.327 C 71.073 189.842,71.069 189.138,70.972 188.765 C 70.874 188.392,70.797 188.789,70.802 189.648 M89.453 194.727 C 90.182 195.479,90.866 196.094,90.974 196.094 C 91.081 196.094,90.573 195.479,89.844 194.727 C 89.115 193.975,88.431 193.359,88.323 193.359 C 88.216 193.359,88.724 193.975,89.453 194.727 M70.467 199.805 C 70.467 202.813,70.529 203.991,70.603 202.424 C 70.677 200.857,70.677 198.396,70.602 196.956 C 70.527 195.515,70.466 196.797,70.467 199.805 M329.824 199.609 C 329.824 201.436,329.891 202.183,329.974 201.270 C 330.056 200.356,330.056 198.862,329.974 197.949 C 329.891 197.036,329.824 197.783,329.824 199.609 M288.972 198.330 C 289.674 198.417,290.729 198.415,291.316 198.326 C 291.903 198.237,291.328 198.166,290.039 198.168 C 288.750 198.170,288.270 198.243,288.972 198.330 M229.942 203.809 C 229.842 203.970,231.369 204.055,233.337 203.997 C 239.798 203.809,240.514 203.658,235.277 203.586 C 232.443 203.547,230.042 203.647,229.942 203.809 M122.450 206.738 L 119.727 209.570 122.461 206.947 L 125.195 204.323 129.297 204.197 L 133.398 204.071 129.286 203.989 L 125.174 203.906 122.450 206.738 M140.098 204.199 C 139.998 204.360,141.174 204.444,142.712 204.385 C 147.471 204.203,148.021 204.034,144.066 203.969 C 141.984 203.934,140.198 204.038,140.098 204.199 M241.797 205.273 C 242.526 206.025,243.210 206.641,243.317 206.641 C 243.425 206.641,242.916 206.025,242.188 205.273 C 241.459 204.521,240.774 203.906,240.667 203.906 C 240.560 203.906,241.068 204.521,241.797 205.273 M251.952 204.199 C 251.952 204.360,253.226 204.444,254.784 204.385 C 259.650 204.202,260.122 204.034,255.957 203.969 C 253.755 203.934,251.953 204.038,251.952 204.199 M268.862 204.195 C 270.105 204.273,272.039 204.272,273.159 204.194 C 274.279 204.115,273.262 204.051,270.898 204.052 C 268.535 204.053,267.619 204.118,268.862 204.195 M155.859 207.227 C 154.259 208.838,153.037 210.156,153.145 210.156 C 153.252 210.156,154.649 208.838,156.250 207.227 C 157.851 205.615,159.072 204.297,158.965 204.297 C 158.857 204.297,157.460 205.615,155.859 207.227 M136.707 207.715 L 134.180 210.352 136.816 207.824 C 139.266 205.476,139.632 205.078,139.344 205.078 C 139.284 205.078,138.098 206.265,136.707 207.715 M145.874 206.738 L 144.727 208.008 145.996 206.861 C 147.179 205.791,147.445 205.469,147.143 205.469 C 147.076 205.469,146.505 206.040,145.874 206.738 M253.906 206.763 C 253.906 206.830,254.478 207.401,255.176 208.032 L 256.445 209.180 255.298 207.910 C 254.229 206.727,253.906 206.461,253.906 206.763 M246.094 209.570 C 247.478 210.967,248.698 212.109,248.806 212.109 C 248.913 212.109,247.868 210.967,246.484 209.570 C 245.100 208.174,243.880 207.031,243.773 207.031 C 243.665 207.031,244.710 208.174,246.094 209.570 M60.638 208.984 C 60.638 209.736,60.718 210.044,60.816 209.668 C 60.914 209.292,60.914 208.677,60.816 208.301 C 60.718 207.925,60.638 208.232,60.638 208.984 M265.430 210.156 C 266.488 211.230,267.441 212.109,267.549 212.109 C 267.656 212.109,266.878 211.230,265.820 210.156 C 264.762 209.082,263.809 208.203,263.701 208.203 C 263.594 208.203,264.372 209.082,265.430 210.156 M90.716 209.766 C 90.716 210.518,90.796 210.825,90.894 210.449 C 90.993 210.073,90.993 209.458,90.894 209.082 C 90.796 208.706,90.716 209.014,90.716 209.766 M100.000 209.285 C 100.000 209.451,101.626 211.165,103.613 213.094 L 107.227 216.602 103.766 213.035 C 101.454 210.652,100.481 209.399,100.836 209.257 C 101.205 209.111,101.158 209.037,100.684 209.015 C 100.308 208.998,100.000 209.120,100.000 209.285 M274.014 212.012 L 277.130 215.234 281.046 215.153 L 284.961 215.071 281.055 214.944 L 277.148 214.818 274.023 211.803 L 270.898 208.789 274.014 212.012 M280.566 209.254 C 280.942 209.352,281.558 209.352,281.934 209.254 C 282.310 209.155,282.002 209.075,281.250 209.075 C 280.498 209.075,280.190 209.155,280.566 209.254 M127.130 211.035 L 125.586 212.695 127.246 211.151 C 128.159 210.302,128.906 209.555,128.906 209.491 C 128.906 209.195,128.566 209.491,127.130 211.035 M249.414 221.875 C 256.072 228.535,261.607 233.984,261.714 233.984 C 261.821 233.984,256.462 228.535,249.805 221.875 C 243.147 215.215,237.612 209.766,237.505 209.766 C 237.397 209.766,242.757 215.215,249.414 221.875 M160.718 211.426 L 159.570 212.695 160.840 211.548 C 162.023 210.479,162.289 210.156,161.987 210.156 C 161.920 210.156,161.349 210.728,160.718 211.426 M146.680 216.406 C 143.462 219.629,140.918 222.266,141.025 222.266 C 141.133 222.266,143.853 219.629,147.070 216.406 C 150.288 213.184,152.832 210.547,152.725 210.547 C 152.617 210.547,149.897 213.184,146.680 216.406 M256.445 219.922 C 260.523 224.004,263.947 227.344,264.055 227.344 C 264.162 227.344,260.914 224.004,256.836 219.922 C 252.758 215.840,249.334 212.500,249.226 212.500 C 249.119 212.500,252.368 215.840,256.445 219.922 M154.876 217.285 L 150.586 221.680 154.980 217.389 C 157.397 215.030,159.375 213.052,159.375 212.995 C 159.375 212.713,158.861 213.203,154.876 217.285 M294.127 215.137 L 291.992 217.383 294.238 215.248 C 296.325 213.264,296.663 212.891,296.373 212.891 C 296.312 212.891,295.302 213.901,294.127 215.137 M114.453 215.161 C 114.453 215.336,115.024 215.995,115.723 216.626 L 116.992 217.773 115.860 216.519 L 114.727 215.265 118.399 215.136 L 122.070 215.006 118.262 214.925 C 116.167 214.880,114.453 214.987,114.453 215.161 M135.156 217.773 C 133.556 219.385,132.334 220.703,132.441 220.703 C 132.549 220.703,133.946 219.385,135.547 217.773 C 137.147 216.162,138.369 214.844,138.262 214.844 C 138.154 214.844,136.757 216.162,135.156 217.773 M284.409 216.165 L 283.466 217.383 284.583 216.320 C 285.198 215.736,285.622 215.188,285.526 215.102 C 285.430 215.017,284.927 215.495,284.409 216.165 M181.641 228.794 L 181.641 240.791 179.980 242.563 L 178.320 244.336 180.165 242.605 L 182.010 240.874 182.118 228.835 C 182.178 222.214,182.095 216.797,181.934 216.797 C 181.772 216.797,181.641 222.195,181.641 228.794 M119.689 220.643 C 119.891 220.969,118.965 221.116,116.332 221.174 L 112.695 221.254 116.175 221.386 C 119.494 221.511,120.970 221.156,119.896 220.492 C 119.583 220.298,119.510 220.352,119.689 220.643 M270.215 221.382 C 271.343 221.461,273.188 221.461,274.316 221.382 C 275.444 221.303,274.521 221.238,272.266 221.238 C 270.010 221.238,269.087 221.303,270.215 221.382 M281.543 221.382 C 282.671 221.461,284.517 221.461,285.645 221.382 C 286.772 221.303,285.850 221.238,283.594 221.238 C 281.338 221.238,280.415 221.303,281.543 221.382 M137.681 225.488 L 135.742 227.539 137.793 225.601 C 138.921 224.534,139.844 223.612,139.844 223.550 C 139.844 223.258,139.482 223.583,137.681 225.488 M123.047 227.211 C 123.047 227.424,123.530 228.024,124.121 228.545 L 125.195 229.492 124.219 228.320 C 123.682 227.676,123.198 227.075,123.145 226.986 C 123.091 226.896,123.047 226.997,123.047 227.211 M197.044 237.500 C 197.044 242.764,197.099 244.917,197.167 242.285 C 197.234 239.653,197.234 235.347,197.167 232.715 C 197.099 230.083,197.044 232.236,197.044 237.500 M127.734 232.153 C 127.734 232.221,128.306 232.792,129.004 233.423 L 130.273 234.570 129.126 233.301 C 128.057 232.117,127.734 231.852,127.734 232.153 M107.031 233.716 C 107.031 233.783,107.603 234.354,108.301 234.986 L 109.570 236.133 108.423 234.863 C 107.354 233.680,107.031 233.414,107.031 233.716 M226.563 239.185 C 226.563 239.252,227.134 239.823,227.832 240.454 L 229.102 241.602 227.954 240.332 C 226.885 239.149,226.563 238.883,226.563 239.185 M88.784 243.164 C 88.787 244.238,88.862 244.631,88.952 244.038 C 89.042 243.444,89.040 242.565,88.947 242.084 C 88.854 241.604,88.781 242.090,88.784 243.164 M222.266 244.727 C 222.994 245.479,223.679 246.094,223.786 246.094 C 223.893 246.094,223.385 245.479,222.656 244.727 C 221.927 243.975,221.243 243.359,221.136 243.359 C 221.028 243.359,221.537 243.975,222.266 244.727 M232.617 245.313 C 233.675 246.387,234.629 247.266,234.736 247.266 C 234.844 247.266,234.066 246.387,233.008 245.313 C 231.950 244.238,230.996 243.359,230.889 243.359 C 230.781 243.359,231.559 244.238,232.617 245.313 M116.662 244.629 C 116.761 244.790,127.840 244.922,141.282 244.922 C 164.501 244.922,165.694 244.956,165.185 245.605 C 164.699 246.225,164.712 246.239,165.332 245.753 C 165.708 245.458,166.016 245.065,166.016 244.880 C 166.016 244.694,154.870 244.496,141.248 244.439 C 127.626 244.382,116.562 244.468,116.662 244.629 M283.764 245.801 L 282.617 247.070 283.887 245.923 C 284.585 245.292,285.156 244.721,285.156 244.653 C 285.156 244.352,284.834 244.617,283.764 245.801 M172.252 249.902 L 170.117 252.148 172.363 250.013 C 174.450 248.030,174.788 247.656,174.498 247.656 C 174.437 247.656,173.427 248.667,172.252 249.902 M227.930 250.391 C 229.422 251.895,230.731 253.125,230.838 253.125 C 230.946 253.125,229.813 251.895,228.320 250.391 C 226.828 248.887,225.519 247.656,225.412 247.656 C 225.304 247.656,226.437 248.887,227.930 250.391 M160.327 250.098 L 159.180 251.367 160.449 250.220 C 161.633 249.150,161.898 248.828,161.597 248.828 C 161.529 248.828,160.958 249.399,160.327 250.098 M279.077 250.098 L 277.930 251.367 279.199 250.220 C 279.897 249.589,280.469 249.018,280.469 248.950 C 280.469 248.649,280.146 248.914,279.077 250.098 M91.016 250.122 C 91.016 250.189,91.587 250.761,92.285 251.392 L 93.555 252.539 92.407 251.270 C 91.338 250.086,91.016 249.820,91.016 250.122 M291.016 250.513 C 291.016 250.580,291.587 251.151,292.285 251.782 L 293.555 252.930 292.407 251.660 C 291.338 250.477,291.016 250.211,291.016 250.513 M275.662 252.942 C 275.059 253.472,274.721 253.906,274.910 253.906 C 275.099 253.906,275.667 253.467,276.172 252.930 C 277.339 251.687,277.081 251.693,275.662 252.942 M166.385 255.371 L 165.039 256.836 166.504 255.490 C 167.867 254.237,168.148 253.906,167.850 253.906 C 167.785 253.906,167.126 254.565,166.385 255.371 M175.370 256.152 L 174.023 257.617 175.488 256.271 C 176.852 255.018,177.133 254.688,176.834 254.688 C 176.769 254.688,176.110 255.347,175.370 256.152 M224.023 268.359 C 228.746 273.086,232.698 276.953,232.806 276.953 C 232.913 276.953,229.137 273.086,224.414 268.359 C 219.691 263.633,215.739 259.766,215.632 259.766 C 215.524 259.766,219.301 263.633,224.023 268.359 M167.755 263.379 L 166.211 265.039 167.871 263.495 C 168.784 262.646,169.531 261.899,169.531 261.835 C 169.531 261.539,169.191 261.835,167.755 263.379 M132.722 263.564 C 133.424 263.651,134.479 263.649,135.066 263.560 C 135.653 263.471,135.078 263.400,133.789 263.402 C 132.500 263.404,132.020 263.477,132.722 263.564 M192.557 264.746 L 191.211 266.211 192.676 264.865 C 194.039 263.612,194.320 263.281,194.022 263.281 C 193.957 263.281,193.297 263.940,192.557 264.746 M286.028 266.016 C 286.028 266.768,286.109 267.075,286.207 266.699 C 286.305 266.323,286.305 265.708,286.207 265.332 C 286.109 264.956,286.028 265.264,286.028 266.016 M208.190 270.215 L 206.055 272.461 208.301 270.326 C 210.387 268.342,210.726 267.969,210.436 267.969 C 210.375 267.969,209.364 268.979,208.190 270.215 M236.133 270.313 C 236.972 271.172,237.746 271.875,237.854 271.875 C 237.961 271.875,237.363 271.172,236.523 270.313 C 235.684 269.453,234.910 268.750,234.802 268.750 C 234.695 268.750,235.294 269.453,236.133 270.313 M279.688 270.117 C 280.416 270.869,281.101 271.484,281.208 271.484 C 281.315 271.484,280.807 270.869,280.078 270.117 C 279.349 269.365,278.665 268.750,278.558 268.750 C 278.450 268.750,278.959 269.365,279.688 270.117 M186.499 270.410 L 185.352 271.680 186.621 270.532 C 187.804 269.463,188.070 269.141,187.768 269.141 C 187.701 269.141,187.130 269.712,186.499 270.410 M212.262 274.609 C 212.262 277.510,212.324 278.696,212.399 277.246 C 212.474 275.796,212.474 273.423,212.399 271.973 C 212.324 270.522,212.262 271.709,212.262 274.609 M195.483 271.191 L 194.336 272.461 195.605 271.314 C 196.789 270.244,197.055 269.922,196.753 269.922 C 196.686 269.922,196.114 270.493,195.483 271.191 M245.020 275.291 C 247.114 275.361,250.542 275.361,252.637 275.291 C 254.731 275.221,253.018 275.164,248.828 275.164 C 244.639 275.164,242.925 275.221,245.020 275.291 M178.686 277.441 L 177.539 278.711 178.809 277.564 C 179.992 276.494,180.258 276.172,179.956 276.172 C 179.889 276.172,179.317 276.743,178.686 277.441 M203.302 280.176 L 201.758 281.836 203.418 280.292 C 204.962 278.856,205.258 278.516,204.962 278.516 C 204.898 278.516,204.151 279.263,203.302 280.176 M235.938 279.810 C 235.938 279.877,236.509 280.448,237.207 281.079 L 238.477 282.227 237.329 280.957 C 236.260 279.774,235.938 279.508,235.938 279.810 M259.673 281.917 C 260.158 282.010,260.862 282.007,261.235 281.909 C 261.608 281.811,261.211 281.735,260.352 281.739 C 259.492 281.743,259.187 281.823,259.673 281.917 M216.602 283.984 C 217.441 284.844,218.215 285.547,218.323 285.547 C 218.430 285.547,217.831 284.844,216.992 283.984 C 216.153 283.125,215.379 282.422,215.271 282.422 C 215.164 282.422,215.762 283.125,216.602 283.984 M180.057 285.449 L 178.711 286.914 180.176 285.568 C 181.539 284.315,181.820 283.984,181.522 283.984 C 181.457 283.984,180.797 284.644,180.057 285.449 M207.580 285.607 C 207.399 285.900,207.474 285.952,207.792 285.755 C 208.112 285.557,209.255 286.386,211.075 288.136 L 213.867 290.820 211.143 287.988 C 208.308 285.041,208.041 284.862,207.580 285.607 M108.789 291.016 C 110.281 292.520,111.590 293.750,111.698 293.750 C 111.805 293.750,110.672 292.520,109.180 291.016 C 107.687 289.512,106.378 288.281,106.271 288.281 C 106.164 288.281,107.297 289.512,108.789 291.016 M245.215 288.557 C 245.698 288.650,246.489 288.650,246.973 288.557 C 247.456 288.464,247.061 288.388,246.094 288.388 C 245.127 288.388,244.731 288.464,245.215 288.557 M165.014 289.941 L 163.867 291.211 165.137 290.064 C 166.320 288.994,166.586 288.672,166.284 288.672 C 166.217 288.672,165.646 289.243,165.014 289.941 M94.922 291.528 C 94.922 291.596,95.493 292.167,96.191 292.798 L 97.461 293.945 96.314 292.676 C 95.244 291.492,94.922 291.227,94.922 291.528 M287.671 294.629 L 286.523 295.898 287.793 294.751 C 288.491 294.120,289.063 293.549,289.063 293.482 C 289.063 293.180,288.740 293.446,287.671 294.629 M169.311 295.410 L 168.164 296.680 169.434 295.532 C 170.617 294.463,170.883 294.141,170.581 294.141 C 170.514 294.141,169.942 294.712,169.311 295.410 M219.141 295.898 C 219.869 296.650,220.554 297.266,220.661 297.266 C 220.768 297.266,220.260 296.650,219.531 295.898 C 218.802 295.146,218.118 294.531,218.011 294.531 C 217.903 294.531,218.412 295.146,219.141 295.898 M256.341 298.047 C 256.341 298.799,256.421 299.106,256.519 298.730 C 256.618 298.354,256.618 297.739,256.519 297.363 C 256.421 296.987,256.341 297.295,256.341 298.047 M154.199 309.260 C 154.683 309.353,155.474 309.353,155.957 309.260 C 156.440 309.167,156.045 309.091,155.078 309.091 C 154.111 309.091,153.716 309.167,154.199 309.260 M199.902 319.416 C 200.386 319.509,201.177 319.509,201.660 319.416 C 202.144 319.323,201.748 319.247,200.781 319.247 C 199.814 319.247,199.419 319.323,199.902 319.416 M186.235 327.620 C 186.721 327.713,187.424 327.710,187.798 327.612 C 188.171 327.514,187.773 327.438,186.914 327.442 C 186.055 327.447,185.749 327.527,186.235 327.620 M211.816 327.613 C 212.192 327.711,212.808 327.711,213.184 327.613 C 213.560 327.515,213.252 327.434,212.500 327.434 C 211.748 327.434,211.440 327.515,211.816 327.613 M205.181 328.015 C 205.775 328.104,206.654 328.102,207.134 328.009 C 207.615 327.917,207.129 327.843,206.055 327.846 C 204.980 327.849,204.587 327.925,205.181 328.015 M191.113 338.160 C 191.489 338.258,192.104 338.258,192.480 338.160 C 192.856 338.062,192.549 337.981,191.797 337.981 C 191.045 337.981,190.737 338.062,191.113 338.160 M206.543 338.166 C 207.026 338.259,207.817 338.259,208.301 338.166 C 208.784 338.073,208.389 337.997,207.422 337.997 C 206.455 337.997,206.060 338.073,206.543 338.166 " stroke="none" fill="#6b818f" fill-rule="evenodd"></path></g></svg>